<mxfile host="app.diagrams.net" modified="2022-09-26T23:28:54.411Z" agent="5.0 (Macintosh; Intel Mac OS X 10_15_7) AppleWebKit/537.36 (KHTML, like Gecko) Chrome/105.0.0.0 Safari/537.36" etag="3nxKLEz7_d7dLpc6KQGC" version="20.3.6" type="github" pages="2">
  <diagram id="d6WIqge2yQM2MYEUYzX_" name="System Diagram">
    <mxGraphModel dx="1106" dy="702" grid="1" gridSize="10" guides="1" tooltips="1" connect="1" arrows="1" fold="1" page="1" pageScale="1" pageWidth="850" pageHeight="1100" math="0" shadow="0">
      <root>
        <mxCell id="0" />
        <mxCell id="1" parent="0" />
        <mxCell id="BZFy8TPtF4Y1V40euOKR-3" value="" style="shape=image;verticalLabelPosition=bottom;labelBackgroundColor=default;verticalAlign=top;aspect=fixed;imageAspect=0;image=https://user-images.githubusercontent.com/113817801/191666887-9b499076-fc63-403b-8ef8-03fb5a0ae309.png;" parent="1" vertex="1">
          <mxGeometry x="90" y="100" width="606.67" height="350" as="geometry" />
        </mxCell>
        <mxCell id="BZFy8TPtF4Y1V40euOKR-10" value="" style="whiteSpace=wrap;html=1;aspect=fixed;strokeColor=none;fontColor=#FF0000;" parent="1" vertex="1">
          <mxGeometry x="260" y="130" width="240" height="240" as="geometry" />
        </mxCell>
        <mxCell id="BZFy8TPtF4Y1V40euOKR-11" value="" style="image;html=1;image=img/lib/clip_art/computers/Database_128x128.png;strokeColor=#FF0000;fontColor=#FF0000;" parent="1" vertex="1">
          <mxGeometry x="270" y="330" width="60" height="40" as="geometry" />
        </mxCell>
        <mxCell id="BZFy8TPtF4Y1V40euOKR-19" value="&lt;font color=&quot;#009900&quot;&gt;&lt;br&gt;&lt;br&gt;&lt;/font&gt;" style="whiteSpace=wrap;html=1;aspect=fixed;strokeColor=#009900;fontColor=#FF0000;align=right;" parent="1" vertex="1">
          <mxGeometry x="285" y="130" width="190" height="190" as="geometry" />
        </mxCell>
        <mxCell id="BZFy8TPtF4Y1V40euOKR-20" value="&lt;span style=&quot;white-space: pre;&quot;&gt;&lt;span style=&quot;white-space: pre;&quot;&gt; &lt;/span&gt; &lt;/span&gt;&lt;span style=&quot;white-space: pre;&quot;&gt; &lt;/span&gt;&lt;span style=&quot;white-space: pre;&quot;&gt; &lt;/span&gt;Python 3.9.13" style="text;html=1;resizable=0;autosize=1;align=center;verticalAlign=middle;points=[];fillColor=none;strokeColor=none;rounded=0;fontColor=#009900;" parent="1" vertex="1">
          <mxGeometry x="280" y="295" width="200" height="30" as="geometry" />
        </mxCell>
      </root>
    </mxGraphModel>
  </diagram>
  <diagram id="Htv_ndZo4WiR1e8I5mNB" name="Flowcharts">
    <mxGraphModel dx="1106" dy="702" grid="1" gridSize="10" guides="1" tooltips="1" connect="1" arrows="1" fold="1" page="1" pageScale="1" pageWidth="850" pageHeight="1100" math="0" shadow="0">
      <root>
        <mxCell id="0" />
        <mxCell id="1" parent="0" />
        <mxCell id="MHVI26Q333wYDYxItcCw-14" style="edgeStyle=orthogonalEdgeStyle;rounded=0;orthogonalLoop=1;jettySize=auto;html=1;exitX=0.5;exitY=1;exitDx=0;exitDy=0;entryX=0.5;entryY=0;entryDx=0;entryDy=0;" edge="1" parent="1" source="MHVI26Q333wYDYxItcCw-2" target="MHVI26Q333wYDYxItcCw-5">
          <mxGeometry relative="1" as="geometry" />
        </mxCell>
        <mxCell id="MHVI26Q333wYDYxItcCw-2" value="Start" style="ellipse;whiteSpace=wrap;html=1;" vertex="1" parent="1">
          <mxGeometry x="110" y="70" width="70" height="30" as="geometry" />
        </mxCell>
        <mxCell id="MHVI26Q333wYDYxItcCw-3" value="&lt;b&gt;Log in System&lt;/b&gt;" style="text;html=1;align=center;verticalAlign=middle;resizable=0;points=[];autosize=1;strokeColor=none;fillColor=none;" vertex="1" parent="1">
          <mxGeometry x="90" y="30" width="110" height="30" as="geometry" />
        </mxCell>
        <mxCell id="MHVI26Q333wYDYxItcCw-4" value="End" style="ellipse;whiteSpace=wrap;html=1;" vertex="1" parent="1">
          <mxGeometry x="110" y="610" width="70" height="30" as="geometry" />
        </mxCell>
        <mxCell id="MHVI26Q333wYDYxItcCw-15" style="edgeStyle=orthogonalEdgeStyle;rounded=0;orthogonalLoop=1;jettySize=auto;html=1;exitX=0.5;exitY=1;exitDx=0;exitDy=0;entryX=0.5;entryY=0;entryDx=0;entryDy=0;" edge="1" parent="1" source="MHVI26Q333wYDYxItcCw-5" target="MHVI26Q333wYDYxItcCw-6">
          <mxGeometry relative="1" as="geometry" />
        </mxCell>
        <mxCell id="MHVI26Q333wYDYxItcCw-5" value="user, password" style="shape=parallelogram;perimeter=parallelogramPerimeter;whiteSpace=wrap;html=1;fixedSize=1;" vertex="1" parent="1">
          <mxGeometry x="85" y="130" width="120" height="40" as="geometry" />
        </mxCell>
        <mxCell id="MHVI26Q333wYDYxItcCw-16" style="edgeStyle=orthogonalEdgeStyle;rounded=0;orthogonalLoop=1;jettySize=auto;html=1;exitX=0.5;exitY=1;exitDx=0;exitDy=0;entryX=0.5;entryY=0;entryDx=0;entryDy=0;" edge="1" parent="1" source="MHVI26Q333wYDYxItcCw-6" target="MHVI26Q333wYDYxItcCw-8">
          <mxGeometry relative="1" as="geometry" />
        </mxCell>
        <mxCell id="MHVI26Q333wYDYxItcCw-6" value="database = open(&quot;&quot;)" style="rounded=0;whiteSpace=wrap;html=1;" vertex="1" parent="1">
          <mxGeometry x="85" y="200" width="120" height="40" as="geometry" />
        </mxCell>
        <mxCell id="MHVI26Q333wYDYxItcCw-7" value="" style="shape=cylinder3;whiteSpace=wrap;html=1;boundedLbl=1;backgroundOutline=1;size=15;" vertex="1" parent="1">
          <mxGeometry x="240" y="195" width="50" height="70" as="geometry" />
        </mxCell>
        <mxCell id="MHVI26Q333wYDYxItcCw-13" style="edgeStyle=orthogonalEdgeStyle;rounded=0;orthogonalLoop=1;jettySize=auto;html=1;exitX=1;exitY=0.5;exitDx=0;exitDy=0;entryX=1;entryY=0.5;entryDx=0;entryDy=0;" edge="1" parent="1" source="MHVI26Q333wYDYxItcCw-8" target="MHVI26Q333wYDYxItcCw-4">
          <mxGeometry relative="1" as="geometry">
            <Array as="points">
              <mxPoint x="360" y="290" />
              <mxPoint x="360" y="625" />
            </Array>
          </mxGeometry>
        </mxCell>
        <mxCell id="MHVI26Q333wYDYxItcCw-18" style="edgeStyle=orthogonalEdgeStyle;rounded=0;orthogonalLoop=1;jettySize=auto;html=1;exitX=0.5;exitY=1;exitDx=0;exitDy=0;entryX=0.5;entryY=0;entryDx=0;entryDy=0;" edge="1" parent="1" source="MHVI26Q333wYDYxItcCw-8" target="MHVI26Q333wYDYxItcCw-10">
          <mxGeometry relative="1" as="geometry" />
        </mxCell>
        <mxCell id="MHVI26Q333wYDYxItcCw-8" value="for line in database" style="shape=hexagon;perimeter=hexagonPerimeter2;whiteSpace=wrap;html=1;fixedSize=1;" vertex="1" parent="1">
          <mxGeometry x="85" y="265" width="120" height="50" as="geometry" />
        </mxCell>
        <mxCell id="MHVI26Q333wYDYxItcCw-19" style="edgeStyle=orthogonalEdgeStyle;rounded=0;orthogonalLoop=1;jettySize=auto;html=1;exitX=0.5;exitY=1;exitDx=0;exitDy=0;entryX=0.5;entryY=0;entryDx=0;entryDy=0;" edge="1" parent="1" source="MHVI26Q333wYDYxItcCw-10" target="MHVI26Q333wYDYxItcCw-11">
          <mxGeometry relative="1" as="geometry" />
        </mxCell>
        <mxCell id="MHVI26Q333wYDYxItcCw-10" value="line = line.split(&quot;,&quot;" style="rounded=0;whiteSpace=wrap;html=1;" vertex="1" parent="1">
          <mxGeometry x="85" y="330" width="120" height="40" as="geometry" />
        </mxCell>
        <mxCell id="MHVI26Q333wYDYxItcCw-20" style="edgeStyle=orthogonalEdgeStyle;rounded=0;orthogonalLoop=1;jettySize=auto;html=1;exitX=1;exitY=0.5;exitDx=0;exitDy=0;entryX=0.75;entryY=0;entryDx=0;entryDy=0;" edge="1" parent="1" source="MHVI26Q333wYDYxItcCw-11" target="MHVI26Q333wYDYxItcCw-12">
          <mxGeometry relative="1" as="geometry" />
        </mxCell>
        <mxCell id="MHVI26Q333wYDYxItcCw-11" value="user == line[o]&lt;br&gt;and password==line[1]" style="rhombus;whiteSpace=wrap;html=1;" vertex="1" parent="1">
          <mxGeometry x="55" y="390" width="180" height="90" as="geometry" />
        </mxCell>
        <mxCell id="MHVI26Q333wYDYxItcCw-12" value="Output&lt;br&gt;&quot;success&quot;" style="shape=parallelogram;perimeter=parallelogramPerimeter;whiteSpace=wrap;html=1;fixedSize=1;" vertex="1" parent="1">
          <mxGeometry x="180" y="480" width="120" height="40" as="geometry" />
        </mxCell>
        <mxCell id="MHVI26Q333wYDYxItcCw-17" value="end" style="text;html=1;align=center;verticalAlign=middle;resizable=0;points=[];autosize=1;strokeColor=none;fillColor=none;" vertex="1" parent="1">
          <mxGeometry x="205" y="265" width="40" height="30" as="geometry" />
        </mxCell>
      </root>
    </mxGraphModel>
  </diagram>
</mxfile>
